PathFileType	4	(X/Y/Z)	Apose_0-50.trc
DataRate	CameraRate	NumFrames	NumMarkers	Units	OrigDataRate	OrigDataStartFrame	OrigNumFrames
30	30	6	22	m	30	20	50
Frame#	Time	Hip			RHip			RKnee			RAnkle			RBigToe			RSmallToe			RHeel			LHip			LKnee			LAnkle			LBigToe			LSmallToe			LHeel			Neck			Head			Nose			RShoulder			RElbow			RWrist			LShoulder			LElbow			LWrist		
		X1	Y1	Z1	X2	Y2	Z2	X3	Y3	Z3	X4	Y4	Z4	X5	Y5	Z5	X6	Y6	Z6	X7	Y7	Z7	X8	Y8	Z8	X9	Y9	Z9	X10	Y10	Z10	X11	Y11	Z11	X12	Y12	Z12	X13	Y13	Z13	X14	Y14	Z14	X15	Y15	Z15	X16	Y16	Z16	X17	Y17	Z17	X18	Y18	Z18	X19	Y19	Z19	X20	Y20	Z20	X21	Y21	Z21	X22	Y22	Z22
21	0.7	0.03354800518402596	0.9212484523697979	0.3568473829633074	0.021691699337311795	0.8854792591068449	0.46269879434701733	0.0011716272427136118	0.5078237876132157	0.4968010892442649	-0.0071779847704247085	0.1151000086498895	0.5160572120683606	0.19222967239196476	0.033996961466697416	0.5615966785105632	0.1464962850827933	0.031835550875561135	0.6288452985772089	-0.03882951082869429	0.0376722390805841	0.49975274802404324	0.027115906453506172	0.8837873448447007	0.24448234967782162	0.008821090140166616	0.5097639946991154	0.2247763863574554	0.0023926589101225136	0.12365283149742566	0.2051294043289931	0.21677066929386626	0.04799224785672231	0.18787829873409387	0.16607350685825126	0.03636521824037301	0.12404945922888433	-0.04690852423024011	0.05269194932025367	0.20068656777909671	0.05362141532101205	1.573918348655098	0.34939215432984205	0.29464831675430087	1.763646423834369	0.3002236525542569	0.29865680753271073	1.605799458905237	0.3279908177070551	0.01865220038264951	1.492519876801705	0.5291261988519289	0.05838703073880939	1.2319054030753194	0.7177426740092169	0.1162135762453364	1.0476045919394743	0.8878540283293752	0.013204630815616611	1.478598995756944	0.1474815816358612	0.025354957850361796	1.2243369066292198	0.0022754127527560997	0.07811330353154333	1.0171603684700594	-0.14792369831445953
22	0.7333333333333333	0.033747916631751126	0.9211557897739978	0.3567581074051366	0.02215460203037006	0.8854566436975001	0.4626860938733859	0.0015110777764332116	0.5082861862307816	0.49651446141355216	-0.006642025699123926	0.11413561383360915	0.5159731177895658	0.19231713914753984	0.033954567370719876	0.5618639480166623	0.14577746853840437	0.03261016824992348	0.6288479838886456	-0.038664778831023795	0.03769925961363818	0.49947300422768154	0.027113577705236487	0.8834023379002206	0.2445722551898879	0.009498680586887508	0.5095838284340122	0.22479792418381248	0.0029161286225431863	0.12340386394509889	0.2053053710850053	0.21731353140913315	0.04794050539922369	0.1876942385244747	0.16626331794777563	0.03676914752348719	0.1238038456513901	-0.04608996867119646	0.05437114593753921	0.2003881558500088	0.05510804515989974	1.5766428828542622	0.3496204866589788	0.2947926723998591	1.7653012007254671	0.29932062846603974	0.287462835550128	1.6024448529561737	0.32702982294738764	0.019260608318795353	1.4923222836446413	0.5293178176744207	0.061547406738980244	1.2314851015360928	0.718896857516881	0.11620898032043799	1.0482266429399039	0.8869985909363363	0.012946527108481175	1.4791389513857378	0.1464234719411359	0.026153726012978717	1.2250000560018535	0.0017742703179459667	0.07924752956196063	1.0176238786412883	-0.14870160023360773
23	0.7666666666666667	0.03380885520411021	0.9211934875915823	0.3566963702724543	0.022787385055103245	0.8852756478160824	0.46265246197353965	0.001798996751089863	0.5086608376302139	0.49614680329428323	-0.006478664398719226	0.11390782436820497	0.515882060905945	0.19262124875394762	0.03365542668135917	0.5623678726733184	0.1455006710905093	0.03286215693662768	0.6287166278441119	-0.03891665791537009	0.03817939269296357	0.4994973409616094	0.027044744070154992	0.8831129668018723	0.24459715171176227	0.010130651193391472	0.5094066615816917	0.22475334336068373	0.0033019090765462112	0.12327407412507768	0.20548386977750108	0.21797427711659906	0.04764779475504409	0.18767764113222596	0.166483966193585	0.036807453913553806	0.12379037771604354	-0.045465776363112165	0.055503104898387015	0.20051811594770708	0.05588916065822701	1.5787458179607226	0.34964348227631503	0.2898194912734391	1.765861256959859	0.3025976489403552	0.2767840353810649	1.599120239798323	0.3263844107890034	0.019483755816312287	1.4921143592736692	0.5295224104272899	0.0650031055796048	1.2320918504072782	0.7192548814250516	0.11605699540639897	1.0487419986752615	0.8862069695117843	0.012840844369154834	1.479634007998359	0.14551663072437565	0.026818759233062813	1.2254869541970517	0.001454617686250143	0.08009886551432471	1.0180104424598453	-0.14944909123198644
24	0.8	0.03371794934223542	0.9213313423518026	0.35665626095782593	0.023508718607192378	0.8847604204278587	0.46263290271310703	0.0021219061950678592	0.5088293426574299	0.49574672897796107	-0.006492445674963783	0.11397005708307634	0.5157736364525086	0.19333927934157402	0.0332298452664008	0.5632193076531639	0.1456234014386934	0.032742105907538	0.628651847192491	-0.03974177364641608	0.039184928751335134	0.49993834061558395	0.026912458751958874	0.8827575745052293	0.24464015573791403	0.010610507883247687	0.5091412052740076	0.22473773849515352	0.0034835859090417065	0.12321926578619949	0.20572280861175118	0.2185807323724148	0.047234973832655555	0.1877385356457096	0.16671171335176693	0.03650924615064021	0.12391175945493378	-0.04478308288553018	0.05646418858519458	0.20071489011719393	0.055303844038686954	1.5792755733089998	0.3492164648294872	0.28217821646652513	1.7654351399384665	0.30727941627181854	0.2699326470878006	1.5970549701013568	0.3263715174153786	0.01942880416885973	1.491818989597717	0.5297997287079865	0.0681836504806853	1.2335760429917515	0.7187484096737021	0.11580244364179493	1.049045819602397	0.8855986599981108	0.012849588438218179	1.4800594961370384	0.1448395544646421	0.02726087532902609	1.225764257837315	0.0012958347159608527	0.0805430081584936	1.018287259799463	-0.1501514129447429
25	0.8333333333333334	0.033579239004456175	0.9214919732538148	0.35660196100053193	0.024203478159008997	0.8839192952035405	0.4626131071790093	0.0024840509598604526	0.5087118287790455	0.4953756255221769	-0.006368657373649609	0.1137103031450049	0.5156569590888169	0.19458679789086622	0.032974761809922835	0.5643495422044148	0.14603718025095755	0.032424191508680124	0.6287368948476361	-0.04090456017132479	0.04050661857421772	0.5006389285994423	0.02679370814791304	0.8822631107140884	0.24470761942433467	0.010890942110685305	0.5087286895783011	0.22480283953780827	0.0034955490018792642	0.12309094587642376	0.20607956475731132	0.21902149360314394	0.04685429802305474	0.18782001478695617	0.16690130528013009	0.036014642085828386	0.12405405547200726	-0.044103104223360876	0.057114667543120876	0.2009144643450783	0.05345159053717862	1.5781687801445257	0.3483821540615526	0.27438909998261785	1.7644671728951253	0.3113423865299363	0.2692036018853594	1.597175794186277	0.32712079781907094	0.019281147192340226	1.4914525028109158	0.5301430648196834	0.07064602712005631	1.235249930725034	0.7178122826752864	0.11555214687779597	1.0490293797510535	0.8852650563558122	0.0129662079322827	1.480406224230448	0.1444012504160573	0.027505293753823355	1.2258745814413101	0.0012545375552593142	0.08059226972539679	1.0184188640399399	-0.15069674170796712
26	0.8666666666666667	0.033558737554131184	0.9216287714198755	0.3564643429128553	0.02481030098805752	0.8829863148851002	0.4625559778965062	0.002829952058125829	0.5083535956606203	0.4950828913150109	-0.006052321844227499	0.11306365028508117	0.5155444688980063	0.19600097229438854	0.03308175731382376	0.565257672205333	0.14656662450669183	0.032027718108889214	0.6288784560669523	-0.04202061545330031	0.041789530704678245	0.5013209655448512	0.026834866780666492	0.8817433271059107	0.2447198335106062	0.011037321766086147	0.5082578746403447	0.2249064210019555	0.0034651657258832585	0.12278638524219754	0.2065519736844973	0.2193085834934737	0.04660166271642077	0.1879090640199627	0.16702973990531692	0.035479571341122694	0.1241757139536164	-0.04369471369608065	0.05705742627320661	0.20128537173694178	0.0511228713263274	1.576275312278952	0.34745697988579133	0.2683147604687894	1.7635625259530863	0.3138478266520177	0.2749208164675846	1.5998025150807678	0.3284690972361439	0.019158395666490798	1.4911255879560932	0.5304339812569278	0.07219322728217836	1.2365065864874256	0.7169411064372203	0.11542647214538199	1.0486328460967873	0.8852170954804348	0.013217421202609488	1.4807007080795762	0.1441869173224976	0.027676579297769656	1.2258904120140994	0.0012734479435418781	0.0804809572457494	1.018443838042316	-0.15091180338988033
